<svg width="51" height="26" viewBox="0 0 51 26" fill="none" xmlns="http://www.w3.org/2000/svg">
<path d="M33.9959 14.7438C40.5959 11.4438 52.4959 14.7438 57.6209 16.8063V27.7751C38.9647 27.4626 2.08341 26.4814 3.80841 25.0564C5.96466 23.2751 12.3397 21.4939 14.5897 21.1189C16.3897 20.8189 20.5272 22.3064 22.3709 23.0876C23.4959 21.6814 27.3959 18.0438 33.9959 14.7438Z" fill="#14B254"/>
<path d="M50.0272 11.3688C48.8272 15.7188 49.5272 24.9313 50.0272 28.9938C48.621 29.8688 45.9773 31.3188 46.6523 30.1188C47.496 28.6188 47.871 22.6188 47.496 18.0251C47.196 14.3501 44.621 12.0563 43.371 11.3688V9.9626C44.7773 11.2438 47.4023 13.4313 46.6523 11.9313C45.9023 10.4313 41.9648 4.86885 40.0898 2.2751C41.0898 1.74385 43.5398 1.61885 45.3398 5.36885C47.5898 10.0563 48.0585 9.0251 48.996 4.61885C49.9335 0.212597 51.5272 5.93135 50.0272 11.3688Z" fill="#C16337"/>
<path d="M14.121 16.8063L12.996 25.6188H15.5272L14.121 16.8063Z" fill="white"/>
<path d="M39.2563 9.58759L37.0897 26.6501H41.9647L39.2563 9.58759Z" fill="white"/>
<path d="M39.5272 25.205C40.8698 17.1812 43.9754 3.73123 45.6566 14.1218C46.9195 21.9266 47.405 24.618 47.5437 25.205H47.5831C47.5976 25.3631 47.5897 25.3995 47.5437 25.205H39.5272Z" fill="#1B8F10" stroke="#C7CB10"/>
<path d="M47.119 16.9309C46.8096 15.8481 46.2887 14.9234 45.6219 14.273C44.955 13.6227 44.1719 13.2758 43.371 13.2758C42.57 13.2758 41.7869 13.6227 41.1201 14.273C40.4532 14.9234 39.9324 15.8481 39.623 16.9309C38.9572 17.3831 38.393 18.1038 37.9963 19.0086C37.5996 19.9134 37.3868 20.9651 37.3827 22.0406C37.3774 25.0813 39.0616 27.6205 41.1307 27.6988C41.7586 27.7229 42.3809 27.5211 42.9433 27.1111V24.3211L40.6121 22.6205C40.51 22.5457 40.4324 22.4145 40.3963 22.2558C40.3784 22.1772 40.3713 22.0942 40.3753 22.0115C40.3793 21.9289 40.3943 21.8482 40.4196 21.7741C40.4449 21.7 40.4799 21.634 40.5226 21.5797C40.5653 21.5254 40.6149 21.484 40.6685 21.4578C40.7768 21.4049 40.895 21.4172 40.9971 21.492L42.9433 22.9262V18.9215C42.9433 18.7552 42.9883 18.5957 43.0685 18.4782C43.1487 18.3606 43.2575 18.2945 43.371 18.2945C43.4844 18.2945 43.5932 18.3606 43.6734 18.4782C43.7537 18.5957 43.7987 18.7552 43.7987 18.9215V21.0453L45.7449 19.6111C45.847 19.5363 45.9652 19.524 46.0735 19.5769C46.1818 19.6298 46.2713 19.7436 46.3224 19.8933C46.3734 20.0429 46.3818 20.2162 46.3457 20.3749C46.3096 20.5336 46.232 20.6648 46.1299 20.7397L43.7987 22.4403V27.1111C44.3305 27.4977 44.9161 27.6989 45.5097 27.6988H45.6112C47.6804 27.6205 49.3646 25.0813 49.3593 22.0406C49.3552 20.9651 49.1424 19.9134 48.7457 19.0086C48.349 18.1038 47.7848 17.3831 47.119 16.9309Z" fill="#C7CB10"/>
<path d="M30.9022 28.2514C31.7764 23.036 33.7987 14.2935 34.8935 21.0473C35.7158 26.1205 36.0319 27.8698 36.1223 28.2514H36.1479C36.1573 28.3541 36.1522 28.3779 36.1223 28.2514H30.9022Z" fill="#CAE299"/>
<path d="M33.0566 21.7471C32.7472 21.0083 32.2264 20.3774 31.5595 19.9337C30.8927 19.4901 30.1096 19.2534 29.3086 19.2534C28.5076 19.2534 27.7246 19.4901 27.0577 19.9337C26.3909 20.3774 25.87 21.0083 25.5606 21.7471C24.8948 22.0556 24.3306 22.5472 23.9339 23.1645C23.5372 23.7819 23.3244 24.4993 23.3203 25.2331C23.315 27.3076 24.9992 29.0399 27.0683 29.0934C27.6962 29.1098 28.3185 28.9721 28.8809 28.6924V26.789L26.5497 25.6288C26.4476 25.5777 26.37 25.4882 26.3339 25.3799C26.316 25.3263 26.3089 25.2697 26.3129 25.2133C26.3169 25.1569 26.332 25.1019 26.3572 25.0513C26.3825 25.0008 26.4175 24.9557 26.4602 24.9186C26.5029 24.8816 26.5525 24.8534 26.6061 24.8355C26.7144 24.7994 26.8326 24.8078 26.9347 24.8588L28.8809 25.8373V23.1051C28.8809 22.9917 28.9259 22.8829 29.0062 22.8027C29.0864 22.7225 29.1952 22.6774 29.3086 22.6774C29.422 22.6774 29.5308 22.7225 29.6111 22.8027C29.6913 22.8829 29.7363 22.9917 29.7363 23.1051V24.5541L31.6825 23.5756C31.7846 23.5246 31.9028 23.5162 32.0111 23.5523C32.1194 23.5884 32.2089 23.666 32.26 23.7681C32.311 23.8702 32.3194 23.9884 32.2833 24.0967C32.2472 24.205 32.1696 24.2945 32.0675 24.3456L29.7363 25.5058V28.6924C30.2681 28.9562 30.8537 29.0934 31.4473 29.0934H31.5489C33.618 29.0399 35.3022 27.3076 35.2969 25.2331C35.2928 24.4993 35.08 23.7819 34.6833 23.1645C34.2866 22.5472 33.7224 22.0556 33.0566 21.7471Z" fill="#C7CB10"/>
<path d="M31.4647 32.8925C32.8073 24.8687 35.9129 11.4187 37.5941 21.8093C38.857 29.6141 39.3425 32.3055 39.4812 32.8925H39.5206C39.5351 33.0506 39.5272 33.087 39.4812 32.8925H31.4647Z" fill="#1B8F10" stroke="#C7CB10"/>
<path d="M19.6336 24.6696C19.6182 24.7012 19.5942 24.7279 19.5644 24.7465C19.5345 24.7652 19.5 24.7751 19.4648 24.775H17.4023V25.7125C17.4023 25.7623 17.3826 25.81 17.3474 25.8451C17.3123 25.8803 17.2646 25.9 17.2148 25.9C17.1651 25.9 17.1174 25.8803 17.0823 25.8451C17.0471 25.81 17.0273 25.7623 17.0273 25.7125V24.775H14.9648C14.9298 24.7749 14.8955 24.765 14.8658 24.7464C14.8362 24.7278 14.8123 24.7013 14.7969 24.6698C14.7815 24.6384 14.7753 24.6032 14.7789 24.5684C14.7825 24.5335 14.7957 24.5004 14.8172 24.4727L15.893 23.0875H15.3398C15.3048 23.0874 15.2705 23.0775 15.2408 23.0589C15.2112 23.0403 15.1873 23.0138 15.1719 22.9823C15.1565 22.9509 15.1503 22.9157 15.1539 22.8809C15.1575 22.846 15.1707 22.8129 15.1922 22.7852L17.0672 20.3477C17.0847 20.3253 17.1071 20.3072 17.1327 20.2947C17.1583 20.2822 17.1864 20.2758 17.2148 20.2758C17.2433 20.2758 17.2714 20.2822 17.297 20.2947C17.3225 20.3072 17.345 20.3253 17.3625 20.3477L19.2375 22.7852C19.2589 22.8129 19.2722 22.846 19.2758 22.8809C19.2794 22.9157 19.2731 22.9509 19.2578 22.9823C19.2424 23.0138 19.2185 23.0403 19.1888 23.0589C19.1592 23.0775 19.1249 23.0874 19.0898 23.0875H18.5367L19.6125 24.4727C19.634 24.5003 19.6474 24.5333 19.6511 24.5681C19.6549 24.6029 19.6488 24.6381 19.6336 24.6696Z" fill="#C16337"/>
<path d="M29.3836 24.2642C29.3682 24.3384 29.3442 24.4009 29.3144 24.4446C29.2845 24.4883 29.25 24.5114 29.2148 24.5114H27.1523V26.7087C27.1523 26.8252 27.1326 26.937 27.0974 27.0194C27.0623 27.1018 27.0146 27.1481 26.9648 27.1481C26.9151 27.1481 26.8674 27.1018 26.8323 27.0194C26.7971 26.937 26.7773 26.8252 26.7773 26.7087V24.5114H24.7148C24.6798 24.5111 24.6455 24.4879 24.6158 24.4443C24.5862 24.4007 24.5623 24.3385 24.5469 24.2648C24.5315 24.191 24.5253 24.1086 24.5289 24.027C24.5325 23.9453 24.5457 23.8677 24.5672 23.8028L25.643 20.5563H25.0898C25.0548 20.5561 25.0205 20.5328 24.9908 20.4892C24.9612 20.4457 24.9373 20.3835 24.9219 20.3097C24.9065 20.2359 24.9003 20.1536 24.9039 20.0719C24.9075 19.9903 24.9207 19.9126 24.9422 19.8477L26.8172 14.1348C26.8347 14.0823 26.8571 14.0398 26.8827 14.0106C26.9083 13.9814 26.9364 13.9662 26.9648 13.9662C26.9933 13.9662 27.0214 13.9814 27.047 14.0106C27.0725 14.0398 27.095 14.0823 27.1125 14.1348L28.9875 19.8477C29.0089 19.9126 29.0222 19.9903 29.0258 20.0719C29.0294 20.1536 29.0231 20.2359 29.0078 20.3097C28.9924 20.3835 28.9685 20.4457 28.9388 20.4892C28.9092 20.5328 28.8749 20.5561 28.8398 20.5563H28.2867L29.3625 23.8028C29.384 23.8674 29.3974 23.9449 29.4011 24.0264C29.4049 24.108 29.3988 24.1903 29.3836 24.2642Z" fill="#1B8F10"/>
<path d="M10.4648 24.304C10.4042 24.343 10.3416 24.379 10.2773 24.4118V25.3375C10.2773 25.3873 10.2971 25.435 10.3323 25.4701C10.3674 25.5053 10.4151 25.525 10.4648 25.525C10.5146 25.525 10.5623 25.5053 10.5974 25.4701C10.6326 25.435 10.6523 25.3873 10.6523 25.3375V24.4118C10.5881 24.379 10.5255 24.343 10.4648 24.304Z" fill="#1B8F10"/>
<path d="M12.1078 21.3672C11.9722 21.0434 11.7439 20.7669 11.4515 20.5724C11.1592 20.3779 10.816 20.2741 10.4648 20.2741C10.1137 20.2741 9.77047 20.3779 9.47815 20.5724C9.18584 20.7669 8.95752 21.0434 8.82188 21.3672C8.53003 21.5025 8.28271 21.718 8.10881 21.9886C7.93491 22.2592 7.84162 22.5737 7.83985 22.8954C7.83751 23.8047 8.57579 24.5641 9.48282 24.5876C9.75804 24.5947 10.0308 24.5344 10.2773 24.4118V23.5774L9.25547 23.0688C9.21072 23.0464 9.17669 23.0072 9.16086 22.9597C9.15303 22.9362 9.1499 22.9114 9.15166 22.8867C9.15341 22.862 9.16002 22.8378 9.1711 22.8157C9.18218 22.7935 9.19752 22.7738 9.21623 22.7575C9.23495 22.7413 9.25668 22.7289 9.28019 22.7211C9.32766 22.7052 9.37947 22.7089 9.42422 22.7313L10.2773 23.1602V21.9626C10.2773 21.9128 10.2971 21.8651 10.3323 21.83C10.3674 21.7948 10.4151 21.7751 10.4648 21.7751C10.5146 21.7751 10.5623 21.7948 10.5974 21.83C10.6326 21.8651 10.6523 21.9128 10.6523 21.9626V22.5977L11.5055 22.1688C11.5502 22.1464 11.602 22.1427 11.6495 22.1586C11.697 22.1744 11.7362 22.2084 11.7586 22.2532C11.781 22.2979 11.7847 22.3497 11.7688 22.3972C11.753 22.4447 11.719 22.4839 11.6742 22.5063L10.6523 23.0149V24.4118C10.8855 24.5274 11.1421 24.5876 11.4023 24.5876H11.4469C12.3539 24.5641 13.0922 23.8047 13.0898 22.8954C13.0881 22.5737 12.9948 22.2592 12.8209 21.9886C12.647 21.718 12.3997 21.5025 12.1078 21.3672Z" fill="#1B8F10"/>
<path d="M23.3086 24.4055C23.2233 24.4605 23.1353 24.5111 23.0449 24.5571V25.859C23.0449 25.9289 23.0727 25.996 23.1221 26.0455C23.1716 26.0949 23.2387 26.1227 23.3086 26.1227C23.3785 26.1227 23.4456 26.0949 23.495 26.0455C23.5445 25.996 23.5723 25.9289 23.5723 25.859V24.5571C23.4819 24.5111 23.3939 24.4605 23.3086 24.4055Z" fill="white"/>
<path d="M25.619 20.2757C25.4283 19.8203 25.1072 19.4314 24.6961 19.1579C24.2851 18.8844 23.8023 18.7385 23.3086 18.7385C22.8149 18.7385 22.3321 18.8844 21.9211 19.1579C21.51 19.4314 21.1889 19.8203 20.9982 20.2757C20.5878 20.4659 20.24 20.769 19.9954 21.1495C19.7509 21.5301 19.6197 21.9723 19.6172 22.4247C19.6139 23.7035 20.6521 24.7713 21.9276 24.8043C22.3147 24.8144 22.6983 24.7295 23.0449 24.5571V23.3838L21.6079 22.6686C21.545 22.6371 21.4971 22.5819 21.4749 22.5152C21.4639 22.4821 21.4595 22.4472 21.4619 22.4125C21.4644 22.3777 21.4737 22.3438 21.4893 22.3126C21.5048 22.2814 21.5264 22.2537 21.5527 22.2308C21.5791 22.208 21.6096 22.1906 21.6427 22.1796C21.7094 22.1573 21.7823 22.1625 21.8452 22.194L23.0449 22.7971V21.1129C23.0449 21.043 23.0727 20.9759 23.1222 20.9265C23.1716 20.877 23.2387 20.8492 23.3086 20.8492C23.3785 20.8492 23.4456 20.877 23.495 20.9265C23.5445 20.9759 23.5723 21.043 23.5723 21.1129V22.0061L24.772 21.4029C24.8349 21.3715 24.9078 21.3663 24.9745 21.3885C25.0413 21.4108 25.0965 21.4587 25.1279 21.5216C25.1594 21.5845 25.1646 21.6574 25.1423 21.7241C25.1201 21.7909 25.0722 21.8461 25.0093 21.8776L23.5723 22.5928V24.5571C23.9001 24.7197 24.261 24.8043 24.627 24.8043H24.6896C25.9651 24.7713 27.0033 23.7035 27 22.4247C26.9975 21.9723 26.8663 21.5301 26.6218 21.1495C26.3772 20.769 26.0294 20.4659 25.619 20.2757Z" fill="white"/>
<path d="M4.31484 1.25C3.93137 1.24999 3.55548 1.35677 3.22928 1.55837C2.90308 1.75997 2.63946 2.04842 2.46797 2.39141C2.32481 2.67485 2.25015 2.98793 2.25 3.30547C2.25082 3.35375 2.23343 3.40058 2.20129 3.43662C2.16915 3.47267 2.12462 3.4953 2.07656 3.5C2.05078 3.50194 2.02488 3.49853 2.00048 3.48998C1.97609 3.48142 1.95372 3.46792 1.93479 3.45031C1.91586 3.43271 1.90078 3.41137 1.89049 3.38766C1.8802 3.36394 1.87493 3.33835 1.875 3.3125C1.87509 3.0505 1.91703 2.79019 1.99922 2.54141C2.0047 2.52554 2.00583 2.5085 2.00248 2.49205C1.99913 2.4756 1.99142 2.46036 1.98017 2.44791C1.96891 2.43545 1.95452 2.42625 1.93849 2.42126C1.92247 2.41627 1.9054 2.41567 1.88906 2.41953C1.56395 2.50013 1.27517 2.68722 1.06874 2.951C0.86231 3.21477 0.750102 3.54005 0.75 3.875C0.75 4.7 1.44844 5.375 2.27109 5.375H4.3125C4.85951 5.37531 5.38424 5.15831 5.77125 4.77174C6.15826 4.38516 6.37586 3.86068 6.37617 3.31367C6.37648 2.76666 6.15948 2.24193 5.77291 1.85492C5.38633 1.46791 4.86185 1.25031 4.31484 1.25Z" fill="white"/>
<path d="M33.7523 2.1875C33.3689 2.18749 32.993 2.29427 32.6668 2.49587C32.3406 2.69747 32.077 2.98592 31.9055 3.32891C31.7623 3.61235 31.6877 3.92543 31.6875 4.24297C31.6883 4.29125 31.6709 4.33808 31.6388 4.37412C31.6067 4.41017 31.5621 4.4328 31.5141 4.4375C31.4883 4.43944 31.4624 4.43603 31.438 4.42748C31.4136 4.41892 31.3912 4.40542 31.3723 4.38781C31.3534 4.37021 31.3383 4.34887 31.328 4.32516C31.3177 4.30144 31.3124 4.27585 31.3125 4.25C31.3126 3.988 31.3545 3.72769 31.4367 3.47891C31.4422 3.46304 31.4433 3.446 31.44 3.42955C31.4366 3.4131 31.4289 3.39786 31.4177 3.38541C31.4064 3.37295 31.392 3.36375 31.376 3.35876C31.36 3.35377 31.3429 3.35317 31.3266 3.35703C31.0015 3.43763 30.7127 3.62472 30.5062 3.8885C30.2998 4.15227 30.1876 4.47755 30.1875 4.8125C30.1875 5.6375 30.8859 6.3125 31.7086 6.3125H33.75C34.297 6.31281 34.8217 6.09581 35.2088 5.70924C35.5958 5.32266 35.8134 4.79818 35.8137 4.25117C35.814 3.70416 35.597 3.17943 35.2104 2.79242C34.8238 2.40541 34.2994 2.18781 33.7523 2.1875Z" fill="white"/>
<path d="M12.1898 5.1875C11.8064 5.18749 11.4305 5.29427 11.1043 5.49587C10.7781 5.69747 10.5145 5.98592 10.343 6.32891C10.1998 6.61235 10.1252 6.92543 10.125 7.24297C10.1258 7.29125 10.1084 7.33808 10.0763 7.37412C10.0442 7.41017 9.99962 7.4328 9.95156 7.4375C9.92578 7.43944 9.89988 7.43603 9.87548 7.42748C9.85109 7.41892 9.82872 7.40542 9.80979 7.38781C9.79086 7.37021 9.77578 7.34887 9.76549 7.32516C9.7552 7.30144 9.74993 7.27585 9.75 7.25C9.75009 6.988 9.79203 6.72769 9.87422 6.47891C9.8797 6.46304 9.88083 6.446 9.87748 6.42955C9.87413 6.4131 9.86642 6.39786 9.85517 6.38541C9.84391 6.37295 9.82952 6.36375 9.81349 6.35876C9.79747 6.35377 9.7804 6.35317 9.76406 6.35703C9.43895 6.43763 9.15017 6.62472 8.94374 6.8885C8.73731 7.15227 8.6251 7.47755 8.625 7.8125C8.625 8.6375 9.32344 9.3125 10.1461 9.3125H12.1875C12.7345 9.31281 13.2592 9.09581 13.6463 8.70924C14.0333 8.32266 14.2509 7.79818 14.2512 7.25117C14.2515 6.70416 14.0345 6.17943 13.6479 5.79242C13.2613 5.40541 12.7369 5.18781 12.1898 5.1875Z" fill="white"/>
</svg>
